<svg width="20" height="18" viewBox="0 0 20 18" fill="none" xmlns="http://www.w3.org/2000/svg">
<path d="M4.29691 6.85292C4.6063 5.97698 5.10856 5.15327 5.81574 4.45011C8.32704 1.93881 12.3974 1.93881 14.9087 4.45011L15.5958 5.14122H14.2176C13.5063 5.14122 12.9318 5.7158 12.9318 6.427C12.9318 7.13821 13.5063 7.71279 14.2176 7.71279H18.6977H18.7138C19.425 7.71279 19.9996 7.13821 19.9996 6.427V1.92675C19.9996 1.21555 19.425 0.640968 18.7138 0.640968C18.0026 0.640968 17.428 1.21555 17.428 1.92675V3.34112L16.7248 2.63394C13.209 -0.881885 7.51137 -0.881885 3.99555 2.63394C3.01514 3.61435 2.30796 4.76754 1.874 6.00109C1.63694 6.67211 1.99053 7.4034 2.65753 7.64047C3.32453 7.87753 4.05984 7.52394 4.29691 6.85694V6.85292ZM1.64096 10.3366C1.44005 10.3969 1.24718 10.5054 1.09048 10.6661C0.929755 10.8268 0.821267 11.0197 0.765014 11.2286C0.75296 11.2768 0.740905 11.3291 0.732869 11.3813C0.720815 11.4496 0.716797 11.5179 0.716797 11.5862V16.0704C0.716797 16.7816 1.29138 17.3562 2.00258 17.3562C2.71378 17.3562 3.28837 16.7816 3.28837 16.0704V14.6601L3.99555 15.3632C7.51137 18.875 13.209 18.875 16.7208 15.3632C17.7012 14.3828 18.4124 13.2296 18.8464 12.0001C19.0834 11.3291 18.7299 10.5978 18.0629 10.3607C17.3959 10.1236 16.6605 10.4772 16.4235 11.1442C16.1141 12.0202 15.6118 12.8439 14.9046 13.547C12.3933 16.0583 8.32302 16.0583 5.81172 13.547L5.80771 13.543L5.12061 12.8559H6.50283C7.21403 12.8559 7.78862 12.2813 7.78862 11.5701C7.78862 10.8589 7.21403 10.2844 6.50283 10.2844H2.01866C1.95437 10.2844 1.89008 10.2884 1.82579 10.2964C1.7615 10.3045 1.70123 10.3165 1.64096 10.3366Z" fill="white"/>
</svg>
